<?xml version="1.0" encoding="UTF-8"?>
<svg version="1.1" xmlns="http://www.w3.org/2000/svg" width="1254" height="1254" viewBox="0 0 1254 1254">
<rect x="52" y="52" width="1150" height="1150" rx="256" fill="#ffffff"/>
<path d="M0 0 C4.36708397 2.26784863 5.75705201 6.21965723 7.6875 10.5 C15.10479844 26.04426044 25.90179945 34.96833168 40.66796875 43.10546875 C49.58886159 48.17772318 49.58886159 48.17772318 51 51 C51.35878563 54.80312764 51.51383509 57.16435583 49.484375 60.46484375 C46.3132322 63.70080551 42.98438567 65.30539837 38.9375 67.25 C23.05586163 75.31659595 13.56894396 86.0920549 5.78833008 101.96142578 C4.0049772 105.51500831 2.52562938 108.04680132 -1 110 C-4.99450311 110.41609407 -7.60759096 110.13683748 -11 108 C-12.27685547 106.15576172 -12.27685547 106.15576172 -13.3671875 103.9296875 C-13.77839844 103.115 -14.18960938 102.3003125 -14.61328125 101.4609375 C-15.02964844 100.60757813 -15.44601562 99.75421875 -15.875 98.875 C-23.71762236 82.94235394 -33.95997149 74.00777105 -49.55859375 65.625 C-50.36425781 65.191875 -51.16992188 64.75875 -52 64.3125 C-52.721875 63.93738281 -53.44375 63.56226563 -54.1875 63.17578125 C-56 62 -56 62 -58 59 C-58.3359375 56.87890625 -58.3359375 56.87890625 -58.375 54.5625 C-58.40335937 53.80066406 -58.43171875 53.03882813 -58.4609375 52.25390625 C-57.81531842 49.09693836 -56.48075639 48.01221556 -54 46 C-52.22038118 45.05992655 -50.4031266 44.18917133 -48.5625 43.375 C-31.31196634 35.02388591 -20.4749736 21.83289815 -12.453125 4.6953125 C-9.68855435 -0.43252015 -5.39851608 -0.96365066 0 0 Z " fill="#000000" transform="translate(362,281)"/>
<path d="M0 0 C3.01489836 0.68283687 4.09426957 2.0805314 6.03515625 4.4609375 C7.18528592 6.63523025 8.26319661 8.84854042 9.28515625 11.0859375 C17.07304683 27.3305784 29.52726913 37.09160159 45.03515625 45.4609375 C48.43775769 47.33593745 49.846557 48.17803863 52.03515625 51.4609375 C52.71429052 58.59184736 52.71429052 58.59184736 50.45703125 61.48046875 C47.49961521 63.89887187 44.3141692 65.53090754 40.91015625 67.2109375 C26.01611884 74.88929717 16.27866337 85.16290167 8.796875 100.0078125 C4.78471795 107.87199616 4.78471795 107.87199616 2.28515625 109.8359375 C-1.10596462 110.77791552 -3.57475578 110.30845949 -6.96484375 109.4609375 C-10.64674347 106.46404238 -12.2624964 103.11025136 -14.21484375 98.8359375 C-21.15100231 84.34950096 -31.71303999 74.88167041 -45.6328125 67.3203125 C-54.03743785 62.63027538 -54.03743785 62.63027538 -56.40234375 59.6484375 C-57.28996211 56.19658834 -56.92637328 53.88638644 -55.96484375 50.4609375 C-52.76711987 47.01723486 -49.62660812 45.2479715 -45.40234375 43.2734375 C-28.85423009 35.28641432 -18.13422556 21.6605451 -10.453125 5.2265625 C-7.88032373 0.44560896 -5.15073094 0.21833542 0 0 Z " fill="#000000" transform="translate(897.96484375,280.5390625)"/>
<path d="M0 0 C6.78161114 4.98962894 10.83993099 10.28081082 14.4375 17.8125 C15.45390628 19.84531257 16.47087179 21.87784558 17.48828125 23.91015625 C18.0395166 25.02793457 18.59075195 26.14571289 19.15869141 27.29736328 C22.33810489 33.72126279 25.65141326 40.07781863 28.93789673 46.44735718 C30.12635368 48.75262576 31.31205838 51.05928856 32.49682617 53.36645508 C36.7486678 61.64535984 41.02611158 69.90888497 45.37988281 78.13476562 C49.53282983 85.98670816 53.61088562 93.87726775 57.69506836 101.76513672 C61.85710926 109.8016001 66.03966089 117.82703255 70.23632812 125.84545898 C73.28925942 131.68968496 76.31125996 137.54908242 79.31640625 143.41796875 C80.07769116 144.90284584 80.83900311 146.38770907 81.6003418 147.87255859 C83.08349221 150.7654827 84.56212276 153.66065706 86.03833008 156.55712891 C87.99536373 160.38774608 89.99065139 164.19655254 92 168 C92.5146582 168.99821777 93.02931641 169.99643555 93.55957031 171.02490234 C94.03749023 171.89711426 94.51541016 172.76932617 95.0078125 173.66796875 C95.39855957 174.39653076 95.78930664 175.12509277 96.19189453 175.87573242 C100.95542975 181.47221094 107.09248799 183.72661253 114.1640625 184.81640625 C114.9585379 184.95381729 115.75301331 185.09122833 116.57156372 185.23280334 C119.25352593 185.69255416 121.93897809 186.12714534 124.625 186.5625 C126.60087523 186.89656815 128.57645184 187.2324064 130.55175781 187.56982422 C134.95067328 188.31848827 139.3511681 189.05683348 143.75292969 189.78857422 C151.40491559 191.06329489 159.05042628 192.37494546 166.6953125 193.69140625 C168.08039345 193.92970196 169.46547956 194.16796765 170.85057068 194.40620422 C172.97711083 194.7719834 175.10364818 195.13777877 177.23017025 195.50366306 C185.37033691 196.90413617 193.51114794 198.3008352 201.65234375 199.6953125 C202.41604845 199.82617941 203.17975315 199.95704632 203.96660042 200.09187889 C214.21706461 201.84783399 224.47010853 203.58791129 234.72551155 205.31478691 C242.19065717 206.57217587 249.65437745 207.83781562 257.11724663 209.10864449 C261.64485177 209.87914511 266.17311602 210.64517597 270.70324707 211.4006958 C274.96329336 212.11118677 279.22129254 212.83288756 283.4780407 213.56287003 C285.04402298 213.82934246 286.61071 214.09171234 288.17813301 214.34957504 C308.98111491 217.77787747 308.98111491 217.77787747 316 226 C316.721875 226.804375 317.44375 227.60875 318.1875 228.4375 C322.67914668 234.78775909 323.60049505 242.46204933 322.375 250 C320.18850441 259.26792002 314.35297892 264.89195132 307.70703125 271.33203125 C304.86128867 274.13670972 302.26673737 277.06928867 299.67578125 280.10546875 C297.23467461 282.865228 294.597094 285.41210976 291.97265625 287.99609375 C289.42662171 290.58246151 287.07978443 293.3153528 284.71484375 296.06640625 C282.52843176 298.53172273 280.19363107 300.81944667 277.8425293 303.1262207 C276.06975976 304.92905709 274.41311736 306.78581022 272.765625 308.703125 C269.03628141 312.99226435 265.16233936 317.12811356 261.25 321.25 C256.61123001 326.15691313 251.98890511 331.07437836 247.4375 336.0625 C241.95554963 342.06966717 236.39189736 347.99812645 230.82421875 353.92578125 C226.63296367 358.38819157 222.45508156 362.86299589 218.28344727 367.34375 C215.22672813 370.62451054 212.15775019 373.89264242 209.0703125 377.14453125 C195.29636079 389.70049208 195.29636079 389.70049208 189.05187988 405.95379639 C189.70481705 414.42968582 190.70557436 422.79767915 191.96875 431.203125 C192.16711904 432.5479951 192.36506932 433.89292703 192.56263733 435.23791504 C193.09177239 438.82984594 193.62768385 442.42073312 194.16533279 446.01139832 C194.61796353 449.03906257 195.06692387 452.06726733 195.51608753 455.09544754 C200.54925177 489.01408867 205.70657152 522.91654956 211.23889351 556.75762558 C211.55995154 558.72268325 211.88006957 560.68789443 212.20018005 562.65310669 C213.21025695 568.85397279 214.22688559 575.05358242 215.25805664 581.25097656 C215.621542 583.47065639 215.98475663 585.69038058 216.34765625 587.91015625 C216.51591919 588.90429031 216.68418213 589.89842438 216.85754395 590.92268372 C218.66314642 602.07381526 219.04711221 612.61601796 212.3125 622.25 C205.9917481 629.99448562 198.1001883 634.70133978 188.125 635.8125 C179.3411961 636.2896449 173.48893636 634.37595523 165.67578125 630.390625 C164.97389175 630.03611771 164.27200226 629.68161041 163.54884338 629.31636047 C162.08479963 628.57684639 160.62140115 627.83605353 159.15863037 627.09402466 C155.85915069 625.4218013 152.55255512 623.76383205 149.24609375 622.10546875 C148.29440308 621.62767471 148.29440308 621.62767471 147.32348633 621.14022827 C135.06116658 614.98454839 122.78101127 608.88667134 110.38061523 603.01245117 C102.09088386 599.0741843 93.8930851 594.96099775 85.69433594 590.83740234 C77.69051679 586.82119598 69.63313487 582.93239434 61.54296875 579.09375 C54.6513934 575.81431069 47.81750444 572.4305026 41 569 C30.31310745 563.62577201 19.55016933 558.42863182 8.73974609 553.30810547 C6.0115895 552.00553346 3.29573061 550.68005151 0.58203125 549.34765625 C-0.27608154 548.9302417 -1.13419434 548.51282715 -2.01831055 548.08276367 C-3.61589399 547.30526782 -5.21011685 546.5208084 -6.80004883 545.7277832 C-14.20071421 542.15116984 -19.40593596 541.57322994 -27.25814819 544.02758789 C-31.80566991 545.64039029 -36.06984182 547.74313116 -40.37890625 549.90234375 C-41.33988724 550.37593323 -42.30086823 550.84952271 -43.29096985 551.33746338 C-46.38494826 552.86390363 -49.47364483 554.40072328 -52.5625 555.9375 C-54.71131174 556.99934377 -56.86056547 558.06029355 -59.01025391 559.12036133 C-62.1818561 560.68447324 -65.35321202 562.249056 -68.52313232 563.8165741 C-75.61693166 567.32431535 -82.72939576 570.78634779 -89.875 574.1875 C-100.23441724 579.13425517 -110.5577709 584.15351789 -120.875 589.1875 C-121.72610352 589.60273926 -122.57720703 590.01797852 -123.45410156 590.44580078 C-134.41349171 595.79419654 -145.36520456 601.15814497 -156.3125 606.53125 C-157.44019806 607.08460526 -158.56789612 607.63796051 -159.72976685 608.20808411 C-165.24635484 610.91515191 -170.76226534 613.62358139 -176.27685547 616.3347168 C-181.24729585 618.77687666 -186.22180176 621.21052687 -191.20056152 623.63568115 C-193.05479478 624.53935001 -194.90808099 625.4449649 -196.76037598 626.3526001 C-199.33910305 627.6140703 -201.92260534 628.86515587 -204.5078125 630.11328125 C-205.25433075 630.48043747 -206.000849 630.84759369 -206.76998901 631.22587585 C-216.48810143 635.88071939 -225.73096554 637.51897234 -236.15625 633.90625 C-244.36299604 630.17591089 -250.46062154 625.34568023 -254.375 617.10546875 C-258.94631837 604.74068747 -256.40522388 592.76558733 -254.39453125 580.10546875 C-254.11531937 578.3109938 -253.83680892 576.51640959 -253.5589447 574.72172546 C-252.96291208 570.88107851 -252.36226553 567.04119312 -251.75793457 563.20184326 C-250.8031663 557.13527774 -249.8591251 551.06707407 -248.91699219 544.99853516 C-247.77379847 537.63885682 -246.6285038 530.27951264 -245.48016548 522.92063522 C-242.63571673 504.69046713 -239.82372944 486.45535661 -237.02931309 468.21745586 C-236.18784653 462.72591325 -235.34325839 457.2348649 -234.49582005 451.74424076 C-233.96755436 448.31774476 -233.44182581 444.89086283 -232.91674995 441.46387672 C-232.67645431 439.89870538 -232.43519017 438.33368231 -232.19279289 436.76883507 C-230.95481102 428.7722448 -229.79464078 420.76934088 -228.79785156 412.73876953 C-228.70645275 412.03444227 -228.61505394 411.33011501 -228.52088547 410.6044445 C-227.85407695 405.02360653 -227.77125192 400.7162472 -231 396 C-233.62902384 393.05566374 -236.36302658 390.30999002 -239.2421875 387.61328125 C-241.44859914 385.52250308 -243.42813079 383.44852481 -245.375 381.125 C-249.08615917 376.76842184 -253.16670121 372.8070007 -257.23291016 368.78662109 C-260.76407975 365.27995225 -264.1067336 361.68612575 -267.328125 357.890625 C-269.29754029 355.66352921 -271.38374342 353.58785046 -273.5 351.5 C-276.20383393 348.83245914 -278.79255535 346.14540508 -281.25 343.25 C-284.97121937 338.90278111 -289.02795507 334.9153535 -293.11816406 330.91894531 C-295.98868344 328.09396193 -298.71815707 325.21137541 -301.34375 322.15625 C-305.33521312 317.53711493 -309.64901042 313.27798639 -314 309 C-318.94957037 304.13347611 -323.73330186 299.22953931 -328.2578125 293.96484375 C-331.34398051 290.48425517 -334.68039267 287.25601331 -338 284 C-342.71350754 279.37678954 -347.23756885 274.69827486 -351.49975586 269.65185547 C-353.05565249 267.82786618 -353.05565249 267.82786618 -355.5625 266.125 C-361.0396094 261.35008411 -364.59304785 254.54985847 -365.23828125 247.3359375 C-365.46560215 238.26703011 -364.06564451 230.93202188 -357.75 224.125 C-350.82187657 217.29976949 -342.01293752 215.96140438 -332.80932617 214.50146484 C-331.48498738 214.28176909 -330.16083935 214.06092081 -328.83686829 213.83901978 C-325.24442248 213.24022549 -321.64953957 212.65746085 -318.0540216 212.07744169 C-314.22301264 211.45645628 -310.39453397 210.82023304 -306.56575012 210.18569946 C-299.25374577 208.97619094 -291.93967102 207.77972644 -284.62472373 206.58816016 C-276.53691809 205.27021831 -268.45116152 203.93995077 -260.36572623 202.60755491 C-257.18789898 202.08392551 -254.0099962 201.56075524 -250.83209693 201.03756309 C-245.30638978 200.12781572 -239.78073264 199.2177646 -234.25509262 198.30760956 C-230.34788313 197.6640365 -226.44064428 197.02064183 -222.53339219 196.37732744 C-220.22372808 195.99698226 -217.91410139 195.61641034 -215.60447502 195.23583603 C-207.35930534 193.87785577 -199.11271915 192.52907642 -190.86425108 191.19127643 C-185.27444463 190.2839946 -179.6862975 189.36693908 -174.09933764 188.44229138 C-170.87984884 187.90985592 -167.65954363 187.38371497 -164.43752098 186.86680222 C-160.93830543 186.30488327 -157.44228821 185.72606948 -153.9465332 185.14306641 C-152.93105471 184.98430149 -151.91557621 184.82553658 -150.86932564 184.6619606 C-144.13023082 183.51285006 -138.87806952 181.89436048 -133.9296875 176.91796875 C-131.0329061 172.53761307 -128.58729092 167.94788285 -126.125 163.3125 C-125.55982666 162.25885254 -124.99465332 161.20520508 -124.41235352 160.11962891 C-123.213468 157.884061 -122.01665885 155.64737852 -120.82177734 153.40966797 C-117.87325521 147.89116621 -114.90436374 142.38365533 -111.9375 136.875 C-111.05457275 135.23301636 -111.05457275 135.23301636 -110.15380859 133.55786133 C-107.01328718 127.7206916 -103.8538307 121.89473924 -100.66650391 116.08300781 C-94.63116694 105.07751572 -88.74682893 93.99596614 -82.88598633 82.89697266 C-77.04635721 71.83996003 -71.14513973 60.81936844 -65.16796875 49.8359375 C-62.86329261 45.59941119 -60.57753749 41.35315858 -58.30078125 37.1015625 C-57.67719727 35.93818359 -57.05361328 34.77480469 -56.41113281 33.57617188 C-55.21972438 31.35195772 -54.03013082 29.12677 -52.84277344 26.90039062 C-38.79563146 0.70010334 -38.79563146 0.70010334 -25.14453125 -3.58203125 C-16.28731259 -5.30830155 -7.83855078 -4.44370976 0 0 Z M-53 198 C-63.64557518 211.26602446 -67.7674399 224.04495294 -66 241 C-64.25557915 250.66140777 -60.01185221 259.98814779 -53 267 C-53.39707536 270.29440192 -54.91272687 272.94744135 -56.484375 275.83203125 C-57.2587793 277.25902344 -57.2587793 277.25902344 -58.04882812 278.71484375 C-58.61021484 279.73707031 -59.17160156 280.75929688 -59.75 281.8125 C-60.33201172 282.87984375 -60.91402344 283.9471875 -61.51367188 285.046875 C-65.9679108 293.18820728 -70.5240913 301.26964231 -75.11328125 309.33544922 C-79.65569213 317.3380279 -84.04460945 325.41848745 -88.41064453 333.51831055 C-91.68237114 339.58284163 -94.99935817 345.61613987 -98.39404297 351.61254883 C-101.90786486 357.82200373 -105.3840663 364.05223631 -108.85235596 370.28720093 C-109.52725842 371.50007174 -110.20266305 372.71266328 -110.87860107 373.92495728 C-111.8344106 375.63936229 -112.78832619 377.35482277 -113.7421875 379.0703125 C-114.2976123 380.06820801 -114.85303711 381.06610352 -115.42529297 382.09423828 C-117.01740166 385.03211078 -118.52242867 388.00311803 -120 391 C-121.07636719 390.89300781 -122.15273438 390.78601563 -123.26171875 390.67578125 C-137.63544254 389.42287386 -149.8459362 390.85501976 -161.52734375 399.97265625 C-171.48570923 408.46347313 -178.8996895 418.86815209 -181 432 C-182.191916 447.47536833 -178.01299291 460.01716075 -168.625 472.25 C-158.82038304 482.52150348 -146.30451429 487.98060454 -132.125 488.4375 C-117.06732851 488.05858704 -104.67409504 481.64724541 -94.33984375 470.9375 C-90.47822728 466.08952741 -85 458.30959808 -85 452 C-40.78 452.33 3.44 452.66 49 453 C50.98 457.95 50.98 457.95 53 463 C60.12165663 475.2558742 70.51248028 483.6645858 84.375 487.375 C98.35697639 489.79786956 111.7402249 487.54463417 123.6640625 479.73046875 C133.56612735 472.39499261 140.2978312 462.46513877 143.69921875 450.55078125 C145.67321316 433.81028324 142.95462268 419.7061779 132.55078125 406.10546875 C124.11432258 396.6914859 111.41378363 391.09809089 99 390 C93.96783498 389.97867225 88.99714383 390.41909953 84 391 C83.70456299 390.45400146 83.40912598 389.90800293 83.10473633 389.34545898 C77.34834325 378.719376 71.53731028 368.13004097 65.5625 357.625 C60.48431315 348.69092699 55.54755383 339.68803411 50.67089844 330.64257812 C46.24964633 322.44433651 41.74810186 314.29389898 37.20605469 306.16210938 C35.95960856 303.92758975 34.71745315 301.69073413 33.4765625 299.453125 C33.05632812 298.69580078 32.63609375 297.93847656 32.203125 297.15820312 C31.36844852 295.65243646 30.53508498 294.14594115 29.703125 292.63867188 C27.62492504 288.88268945 25.51374448 285.15236992 23.3359375 281.453125 C22.9119165 280.72496582 22.48789551 279.99680664 22.05102539 279.24658203 C21.24537609 277.86651256 20.42993231 276.4920988 19.60327148 275.12451172 C16.98365667 270.61232996 16.98365667 270.61232996 17.05859375 267.8046875 C18.21409051 265.58958583 19.60803126 263.88469456 21.25 262 C30.14702982 250.94278598 31.75195918 238.73021761 31 225 C29.20982919 213.19700944 23.0468275 201.67359958 13.71484375 194.16015625 C-6.46334701 179.40855775 -35.09870112 178.18497652 -53 198 Z " fill="#000000" transform="translate(646,290)"/>
<path d="M0 0 C3.57007621 0.18642696 7.11943812 0.52208476 10.6796875 0.84375 C15.82407993 1.17163981 20.88997336 0.56948029 26 0 C26.35602295 0.66717041 26.7120459 1.33434082 27.07885742 2.02172852 C33.41266094 13.8759589 39.77516848 25.70136418 46.4375 37.375 C51.32698632 45.94813991 56.04592194 54.60359123 60.6875 63.3125 C66.77182794 74.72651895 66.77182794 74.72651895 73 86.0625 C73.37326416 86.73265137 73.74652832 87.40280273 74.13110352 88.09326172 C76.37603175 92.11423781 78.63555416 96.12684994 80.8994751 100.13716125 C82.29753804 102.61693817 83.69037526 105.09962967 85.08251953 107.58273315 C85.77346737 108.812058 86.46680111 110.04004509 87.16259766 111.26663208 C88.13761507 112.98568763 89.10414125 114.70955081 90.0703125 116.43359375 C90.63508301 117.43447021 91.19985352 118.43534668 91.78173828 119.46655273 C93 122 93 122 93 125 C91.19948428 127.64492632 89.2216069 130.11502855 87.23828125 132.625 C84.27316093 137.09596676 82.21998559 142.11603171 80 147 C35.78 147 -8.44 147 -54 147 C-57.465 140.07 -57.465 140.07 -61 133 C-63.80592972 129.72860756 -63.80592972 129.72860756 -66.8125 126.6484375 C-68 125 -68 125 -67.72949219 123.19897461 C-66.89300139 120.67746437 -65.78717106 118.50175379 -64.515625 116.16796875 C-63.9995166 115.21696289 -63.4834082 114.26595703 -62.95166016 113.28613281 C-62.10933838 111.75230957 -62.10933838 111.75230957 -61.25 110.1875 C-60.66653809 109.11725586 -60.08307617 108.04701172 -59.48193359 106.94433594 C-55.07792948 98.89339529 -50.56411462 90.9076519 -46.02075195 82.93481445 C-41.69788902 75.31538909 -37.55005287 67.60896107 -33.4375 59.875 C-28.58666724 50.75294332 -23.61758703 41.71632328 -18.44189453 32.77392578 C-13.83389424 24.78620371 -9.45360115 16.67995512 -5.09912109 8.55175781 C-4.31722412 7.09527832 -4.31722412 7.09527832 -3.51953125 5.609375 C-2.82500854 4.3095166 -2.82500854 4.3095166 -2.11645508 2.98339844 C-1 1 -1 1 0 0 Z " fill="#000000" transform="translate(615,570)"/>
<path d="M0 0 C1.26158432 -0.01583633 2.52316864 -0.03167267 3.82298279 -0.04798889 C5.19196952 -0.04414702 6.56095333 -0.03910775 7.92993164 -0.03295898 C9.34331165 -0.03819791 10.75668816 -0.04447537 12.1700592 -0.05174255 C15.12818892 -0.06213483 18.08583727 -0.05760335 21.04394531 -0.04296875 C24.82491677 -0.02578945 28.60436728 -0.04926887 32.38516903 -0.08445835 C35.30300362 -0.10647714 38.22047682 -0.10498019 41.13836861 -0.09669304 C42.53176097 -0.0958758 43.92518046 -0.10269573 45.3184948 -0.11746407 C57.55125367 -0.22724803 57.55125367 -0.22724803 61.49072266 2.94775391 C64.65413497 6.73134508 64.78586375 8.57737667 64.82958984 13.44848633 C64.8488427 15.31117157 64.8488427 15.31117157 64.8684845 17.21148682 C64.87665307 18.57401124 64.88409658 19.93654018 64.89086914 21.29907227 C64.89494467 21.98480064 64.8990202 22.67052902 64.90321922 23.37703705 C64.92408272 27.00843505 64.93838164 30.63979526 64.94775391 34.27124023 C64.95880286 38.01501044 64.9931834 41.75818372 65.03292561 45.50174332 C65.05912669 48.38603793 65.06744891 51.27019128 65.07103539 54.15459442 C65.07589453 55.53405527 65.08748951 56.91351009 65.10607338 58.29285431 C65.25937959 70.42867136 65.25937959 70.42867136 62.87597656 74.30200195 C58.951332 78.2408678 56.00257648 78.78493464 50.49462891 78.80810547 C49.24976212 78.81763748 48.00489532 78.82716949 46.7223053 78.83699036 C45.36703462 78.83672892 44.01176394 78.83579181 42.65649414 78.83422852 C41.26171237 78.83811743 39.86693178 78.8424525 38.47215271 78.84721375 C35.55105752 78.85466827 32.63008321 78.8543903 29.70898438 78.84912109 C25.97197571 78.84332744 22.23546283 78.86025808 18.49853611 78.88346577 C15.61855696 78.89822218 12.7386967 78.89907224 9.85868645 78.89595604 C8.48122107 78.8964683 7.10374886 78.90168815 5.72632027 78.91176796 C3.79756602 78.92415053 1.86871138 78.9153881 -0.06005859 78.90576172 C-1.15607895 78.90639114 -2.2520993 78.90702057 -3.3813324 78.90766907 C-6.83259186 78.47223352 -8.60993966 77.66806593 -11.34741211 75.53344727 C-14.21825814 71.8297683 -14.72514116 69.07749292 -14.7355957 64.44555664 C-14.74505219 63.24080688 -14.75450867 62.03605713 -14.76425171 60.7947998 C-14.75514267 58.85558655 -14.75514267 58.85558655 -14.74584961 56.87719727 C-14.74787236 55.52868492 -14.75078548 54.18017365 -14.75454712 52.83166504 C-14.75896106 50.01063585 -14.75256983 47.18989236 -14.73852539 44.36889648 C-14.72143357 40.76079311 -14.73127982 37.15335929 -14.74924278 33.54528046 C-14.76010607 30.76221715 -14.75662272 27.97931145 -14.74885941 25.19624329 C-14.74589735 23.22152266 -14.75497597 21.24679579 -14.76425171 19.27209473 C-14.75479523 18.06734497 -14.74533875 16.86259521 -14.7355957 15.62133789 C-14.73320892 14.56386353 -14.73082214 13.50638916 -14.72836304 12.41687012 C-14.12814637 7.87382184 -12.26044313 5.44184408 -9.05662537 2.25428772 C-5.78057938 0.17340596 -3.86058758 0.02160243 0 0 Z " fill="#000000" transform="translate(241.347412109375,680.466552734375)"/>
<path d="M0 0 C10.6029941 6.61527912 18.00535148 15.81814257 21.2109375 27.97265625 C23.34355089 40.252955 21.0550976 50.92292133 14.40234375 61.3515625 C8.23869032 69.65362631 -1.15532493 75.28605758 -11.2734375 77.390625 C-23.70518106 79.09880351 -35.22069435 76.0841165 -45.3203125 68.671875 C-52.52009929 63.08953534 -56.47198298 55.21686356 -59.3203125 46.671875 C-60.17365573 32.90646943 -59.488977 21.68654191 -50.21875 10.734375 C-49.59226562 10.05375 -48.96578125 9.373125 -48.3203125 8.671875 C-47.73507812 8.0325 -47.14984375 7.393125 -46.546875 6.734375 C-34.62544454 -4.93554849 -14.83838394 -7.31643308 0 0 Z " fill="#000000" transform="translate(1006.3203125,684.328125)"/>
<path d="M0 0 C9.60588753 7.04528197 15.36322918 16.60909141 17.28125 28.33984375 C18.59960999 38.70544914 15.46375121 48.64466484 9.65625 57.21484375 C3.77857349 64.69552294 -4.14701376 70.81055066 -13.71875 72.33984375 C-26.36133395 73.33827091 -36.54703792 72.44550436 -47.03125 64.65234375 C-55.42796736 57.48181369 -60.87660167 47.95460702 -61.95703125 36.90234375 C-62.28014868 25.74628949 -59.16839949 14.8170311 -51.71875 6.33984375 C-37.87124357 -7.50766268 -16.90574087 -10.32318947 0 0 Z " fill="#000000" transform="translate(647.71875,913.66015625)"/>
</svg>
